PathFileType	4	(x/y/z)	S02_PSF_T06
DataRate	CameraRate	NumFrames	NumMarkers	Units	OrigDataRate	OrigDataStartFrame	OrigNumFrames
240	240	8	51	mm	240	153	407
Frame#	Time	Sternum			R.Acromium			L.Acromium			Top.Head			R.ASIS			L.ASIS			R.PSIS			L.PSIS			R.Great.Tro			L.Great.Tro			R.Iliac.Crest			L.Iliac.Crest			V.Sacral			R.Thigh.Upper.Post			R.Thigh.Lower.Ant			R.Thigh.Lower.Post			R.Thigh.Upper.Ant			R.Knee.Lat			R.Knee.Med			R.Shank.Upper.Post			R.Shank.Lower.Ant			R.Shank.Lower.Post			R.Shank.Upper.Ant			R.Ankle.Lat			R.Ankle.Med			R.Heel.Upper			R.Heel.Med			R.Heel.Lat			R.Toe.Lat			R.Toe.Med			R.Toe.Tip			L.Thigh.Upper.Post			L.Thigh.Lower.Ant			L.Thigh.Lower.Post			L.Thigh.Upper.Ant			L.Knee.Lat			L.Knee.Med			L.Shank.Upper.Post			L.Shank.Lower.Ant			L.Shank.Lower.Post			L.Shank.Upper.Ant			L.Ankle.Lat			L.Ankle.Med			L.Heel.Upper			L.Heel.Med			L.Heel.Lat			L.Toe.Lat			L.Toe.Med			L.Toe.Tip			Cervical.Spine			Back			
		X1	Y1	Z1	X2	Y2	Z2	X3	Y3	Z3	X4	Y4	Z4	X5	Y5	Z5	X6	Y6	Z6	X7	Y7	Z7	X8	Y8	Z8	X9	Y9	Z9	X10	Y10	Z10	X11	Y11	Z11	X12	Y12	Z12	X13	Y13	Z13	X14	Y14	Z14	X15	Y15	Z15	X16	Y16	Z16	X17	Y17	Z17	X18	Y18	Z18	X19	Y19	Z19	X20	Y20	Z20	X21	Y21	Z21	X22	Y22	Z22	X23	Y23	Z23	X24	Y24	Z24	X25	Y25	Z25	X26	Y26	Z26	X27	Y27	Z27	X28	Y28	Z28	X29	Y29	Z29	X30	Y30	Z30	X31	Y31	Z31	X32	Y32	Z32	X33	Y33	Z33	X34	Y34	Z34	X35	Y35	Z35	X36	Y36	Z36	X37	Y37	Z37	X38	Y38	Z38	X39	Y39	Z39	X40	Y40	Z40	X41	Y41	Z41	X42	Y42	Z42	X43	Y43	Z43	X44	Y44	Z44	X45	Y45	Z45	X46	Y46	Z46	X47	Y47	Z47	X48	Y48	Z48	X49	Y49	Z49	X50	Y50	Z50	X51	Y51	Z51	

153	0.63333	-484.58	1054.1	317.5	-599.73	1287.4	463.9	-576.55	1300.9	174.18	-574.65	1588	333.44	-506.15	904.68	410.75	-511.93	878.9	196.87	-726.55	935.59	359.57	-732.61	936.4	287.32	-557.58	797.42	503.8	-654.88	783.59	116.44	-615.84	944.02	471.24	-635.52	927.91	135.01	-753.88	887.28	321.31	-468.21	610.04	480.17	-391.6	561.39	433.26	-448.75	523.83	459.12	-415.5	646.04	453.05	-402.79	460.38	437.56	-426.17	447.56	297.56	-460.53	246.37	431.31	-382.79	172.77	402.36	-448.27	174.23	419.5	-389.18	241.12	419.24	-428.95	87.458	404.31	-423.34	101.3	319.96	-492.29	71.745	349.42	-477.7	39.943	322.14	-487.4	41.076	385.95	-325.07	40.629	425.19	-293.59	34.267	318.2	-245.77	64.021	372.47	-728.38	581.16	155.23	-671.89	486.49	145.35	-746.39	493.58	173.71	-660.03	580.09	129.85	-713.67	414.27	152.24	-701.5	402.97	288.8	-891.88	347.56	159.1	-905.99	237.95	165.2	-945.98	297.73	174.49	-856.54	294.88	151.33	-1009.1	191.6	179.33	-1000.4	183.65	259.82	-1070.7	214.24	213.23	-1082.9	197.73	251.27	-1090.6	190.53	189.22	-998.1	56.914	168.04	-973.66	62.357	276.09	-923.59	41.917	234.12	-666.52	1362.6	318.53	-744.22	1111	302.72
154	0.6375	-478.67	1055	318.11	-593.81	1288	464.67	-571.04	1301.7	175.05	-568.94	1588.6	334.55	-500.11	905.98	411.27	-505.96	879.79	197.63	-720.5	936.2	359.78	-726.43	936.85	287.5	-551.71	798.28	504.34	-648.19	783.17	116.95	-609.93	944.96	471.61	-629.18	928.59	135.43	-747.76	887.78	321.6	-462.95	610.22	480.74	-386.41	561.3	433.96	-443.8	523.97	459.59	-409.97	646.01	453.88	-398.08	460.19	437.93	-420.53	447.94	297.87	-457.99	246.76	431.64	-381.18	172.25	402.39	-446.62	174.48	419.72	-386.72	240.66	419.37	-428.5	87.513	404.37	-423.03	101.36	320	-492.16	71.915	349.49	-477.64	40.103	322.19	-487.31	41.213	386.01	-324.95	40.481	425.22	-293.48	33.973	318.14	-245.52	63.493	372.45	-719.88	579.99	155.4	-662.41	485.97	144.95	-736.93	492.17	173.58	-651.56	579.76	129.84	-703.71	413.59	151.55	-690.49	401.56	288.02	-882.56	349.25	159.26	-898.31	239.86	164.69	-937.26	300.15	174.63	-848.47	296.23	150.8	-1001.6	195.05	179.04	-992.74	186.68	259.57	-1061.7	219.83	213.28	-1074.6	203.97	251.53	-1082.7	196.96	189.36	-995.47	59.775	168.06	-970.18	64.328	275.85	-921.6	41.189	233.65	-660.73	1363.1	319.5	-738.33	1111.6	303.47
155	0.64167	-472.79	1056	318.7	-587.91	1288.6	465.43	-565.59	1302.5	175.89	-563.23	1589.3	335.65	-494.1	907.31	411.76	-500.05	880.75	198.38	-714.48	936.84	360.03	-720.32	937.34	287.74	-545.88	799.13	504.88	-641.54	782.84	117.5	-604.03	945.94	471.99	-622.95	929.31	135.88	-741.68	888.32	321.93	-457.88	610.32	481.31	-381.44	561.07	434.67	-439.11	524.02	460.04	-404.6	645.87	454.7	-393.71	459.91	438.36	-415.16	448.18	298.18	-455.64	247.11	431.9	-379.7	171.72	402.44	-445.12	174.71	419.91	-384.45	240.18	419.52	-428.11	87.565	404.43	-422.77	101.43	320.04	-492.04	72.056	349.56	-477.59	40.24	322.24	-487.23	41.326	386.07	-324.85	40.378	425.25	-293.38	33.755	318.09	-245.3	63.067	372.45	-711.34	578.88	155.55	-652.87	485.54	144.5	-727.4	490.82	173.43	-643.07	579.51	129.78	-693.66	412.98	150.83	-679.31	400.21	287.2	-873	350.95	159.43	-890.33	241.77	164.21	-928.3	302.56	174.8	-840.2	297.61	150.26	-993.73	198.51	178.77	-984.76	189.7	259.37	-1052.4	225.37	213.36	-1065.9	210.15	251.81	-1074.4	203.36	189.56	-992.51	62.786	168.09	-966.33	66.375	275.58	-919.35	40.461	233.12	-655	1363.7	320.45	-732.46	1112.1	304.22
156	0.64583	-466.94	1057.1	319.27	-582.04	1289.3	466.17	-560.18	1303.4	176.7	-557.53	1590	336.73	-488.13	908.67	412.23	-494.2	881.77	199.09	-708.49	937.52	360.34	-714.29	937.88	288.02	-540.09	799.97	505.44	-634.95	782.58	118.07	-598.13	946.96	472.38	-616.85	930.07	136.37	-735.65	888.89	322.32	-452.99	610.35	481.87	-376.71	560.72	435.36	-434.67	523.99	460.47	-399.4	645.61	455.52	-389.65	459.54	438.82	-410.11	448.29	298.5	-453.48	247.42	432.12	-378.36	171.2	402.52	-443.76	174.9	420.05	-382.36	239.7	419.69	-427.77	87.612	404.47	-422.55	101.5	320.06	-491.94	72.172	349.63	-477.54	40.357	322.28	-487.16	41.418	386.11	-324.77	40.309	425.28	-293.3	33.599	318.04	-245.13	62.727	372.45	-702.79	577.85	155.67	-643.31	485.21	144.01	-717.82	489.54	173.24	-634.58	579.35	129.69	-683.52	412.45	150.07	-667.96	398.94	286.35	-863.23	352.66	159.59	-882.06	243.68	163.78	-919.12	304.98	175	-831.75	299.03	149.73	-985.58	201.97	178.53	-976.47	192.68	259.23	-1042.8	230.83	213.49	-1056.7	216.21	252.14	-1065.8	209.71	189.82	-989.18	65.924	168.13	-962.09	68.479	275.3	-916.8	39.749	232.52	-649.33	1364.3	321.37	-726.61	1112.7	304.98
157	0.65	-461.12	1058.2	319.82	-576.19	1290.1	466.89	-554.83	1304.3	177.48	-551.83	1590.8	337.78	-482.19	910.04	412.68	-488.41	882.85	199.78	-702.53	938.23	360.69	-708.34	938.46	288.36	-534.33	800.82	506.01	-628.43	782.41	118.68	-592.23	948	472.8	-610.88	930.84	136.88	-729.68	889.5	322.76	-448.3	610.32	482.42	-372.19	560.26	436.04	-430.48	523.89	460.88	-394.36	645.26	456.32	-385.9	459.1	439.32	-405.42	448.27	298.83	-451.5	247.68	432.27	-377.15	170.69	402.63	-442.54	175.06	420.16	-380.45	239.22	419.88	-427.47	87.654	404.51	-422.36	101.56	320.08	-491.86	72.266	349.68	-477.51	40.455	322.32	-487.1	41.493	386.15	-324.7	40.268	425.31	-293.23	33.491	318	-244.98	62.459	372.46	-694.22	576.88	155.75	-633.72	484.98	143.48	-708.21	488.35	173.04	-626.08	579.27	129.56	-673.3	412.02	149.3	-656.47	397.78	285.48	-853.25	354.38	159.76	-873.51	245.6	163.38	-909.71	307.38	175.22	-823.1	300.47	149.21	-977.13	205.41	178.34	-967.89	195.62	259.14	-1032.8	236.17	213.68	-1047.2	222.13	252.51	-1056.8	215.94	190.14	-985.46	69.161	168.17	-957.43	70.62	275	-913.91	39.069	231.87	-643.71	1364.9	322.26	-720.78	1113.3	305.74
158	0.65417	-455.32	1059.4	320.34	-570.36	1290.9	467.6	-549.54	1305.3	178.21	-546.13	1591.5	338.81	-476.29	911.41	413.11	-482.69	883.98	200.44	-696.61	938.97	361.1	-702.45	939.09	288.75	-528.6	801.66	506.6	-621.98	782.33	119.33	-586.33	949.07	473.23	-605.04	931.64	137.42	-723.75	890.15	323.26	-443.78	610.23	482.95	-367.89	559.69	436.69	-426.53	523.74	461.25	-389.48	644.81	457.1	-382.43	458.6	439.82	-401.1	448.15	299.16	-449.7	247.9	432.37	-376.06	170.19	402.76	-441.45	175.21	420.23	-378.71	238.74	420.08	-427.2	87.691	404.54	-422.19	101.62	320.09	-491.8	72.343	349.73	-477.47	40.536	322.35	-487.05	41.553	386.18	-324.65	40.246	425.34	-293.17	33.42	317.97	-244.86	62.249	372.48	-685.64	576.01	155.82	-624.13	484.86	142.93	-698.58	487.27	172.81	-617.59	579.3	129.39	-663.02	411.68	148.52	-644.87	396.75	284.62	-843.09	356.11	159.93	-864.7	247.51	163.02	-900.09	309.76	175.47	-814.24	301.95	148.72	-968.4	208.81	178.18	-959.01	198.49	259.11	-1022.5	241.36	213.92	-1037.4	227.84	252.92	-1047.4	222.03	190.53	-981.32	72.467	168.23	-952.33	72.775	274.68	-910.64	38.439	231.17	-638.15	1365.6	323.13	-714.98	1114	306.51
159	0.65833	-449.55	1060.6	320.83	-564.54	1291.7	468.28	-544.3	1306.3	178.9	-540.44	1592.4	339.81	-470.42	912.76	413.52	-477.04	885.15	201.06	-690.72	939.75	361.57	-696.64	939.75	289.2	-522.88	802.49	507.19	-615.6	782.35	120	-580.43	950.16	473.69	-599.34	932.46	137.98	-717.88	890.84	323.82	-439.44	610.1	483.46	-363.8	559.05	437.31	-422.8	523.53	461.6	-384.76	644.3	457.85	-379.22	458.07	440.32	-397.18	447.92	299.48	-448.07	248.09	432.42	-375.08	169.7	402.91	-440.48	175.33	420.27	-377.13	238.25	420.29	-426.98	87.724	404.56	-422.05	101.67	320.1	-491.74	72.405	349.77	-477.45	40.604	322.37	-487	41.602	386.21	-324.6	40.239	425.37	-293.13	33.377	317.94	-244.76	62.088	372.49	-677.06	575.24	155.88	-614.53	484.86	142.36	-688.92	486.29	172.58	-609.12	579.42	129.21	-652.68	411.46	147.73	-633.17	395.85	283.76	-832.76	357.83	160.12	-855.64	249.42	162.71	-890.27	312.11	175.76	-805.18	303.43	148.25	-959.4	212.16	178.07	-949.86	201.28	259.13	-1012	246.35	214.24	-1027.2	233.33	253.39	-1037.8	227.9	190.99	-976.71	75.811	168.29	-946.76	74.923	274.34	-906.94	37.879	230.41	-632.64	1366.4	323.97	-709.2	1114.7	307.3
160	0.6625	-443.81	1061.8	321.29	-558.75	1292.6	468.94	-539.11	1307.3	179.55	-534.76	1593.2	340.78	-464.59	914.08	413.91	-471.45	886.37	201.64	-684.87	940.56	362.09	-690.89	940.46	289.71	-517.18	803.32	507.79	-609.31	782.46	120.71	-574.51	951.26	474.18	-593.77	933.29	138.55	-712.05	891.57	324.44	-435.25	609.94	483.94	-359.89	558.35	437.9	-419.27	523.3	461.92	-380.19	643.73	458.55	-376.25	457.51	440.8	-393.66	447.61	299.8	-446.6	248.25	432.41	-374.21	169.22	403.09	-439.62	175.43	420.27	-375.7	237.78	420.51	-426.78	87.752	404.56	-421.92	101.72	320.1	-491.7	72.455	349.8	-477.42	40.66	322.39	-486.96	41.642	386.23	-324.57	40.242	425.39	-293.09	33.353	317.91	-244.69	61.963	372.51	-668.48	574.56	155.92	-604.94	484.98	141.78	-679.25	485.42	172.35	-600.67	579.66	129	-642.3	411.35	146.93	-621.4	395.12	282.93	-822.27	359.55	160.31	-846.36	251.31	162.44	-880.28	314.42	176.08	-795.9	304.93	147.82	-950.15	215.43	178.01	-940.44	203.97	259.22	-1001.3	251.13	214.63	-1016.7	238.53	253.91	-1027.9	233.54	191.55	-971.61	79.158	168.35	-940.69	77.042	273.99	-902.76	37.41	229.6	-627.17	1367.1	324.8	-703.45	1115.4	308.09
